<svg width="40" height="40" fill="none" xmlns="http://www.w3.org/2000/svg"><path d="M0 20C0 8.954 8.954 0 20 0s20 8.954 20 20-8.954 20-20 20S0 31.046 0 20Z" fill="#fff"/><mask id="a" style="mask-type:alpha" maskUnits="userSpaceOnUse" x="0" y="0" width="40" height="40"><path fill-rule="evenodd" clip-rule="evenodd" d="M0 20C0 8.954 8.954 0 20 0s20 8.954 20 20-8.954 20-20 20S0 31.046 0 20Z" fill="#fff"/></mask><g mask="url(#a)" fill-rule="evenodd" clip-rule="evenodd" fill="#7289DA"><path d="M17.333 20c0-.732.528-1.333 1.196-1.333.667 0 1.206.6 1.195 1.333 0 .733-.528 1.334-1.195 1.334-.657 0-1.196-.6-1.196-1.334Zm4.277 0c0-.732.527-1.333 1.195-1.333S24 19.267 24 20s-.527 1.334-1.195 1.334c-.656 0-1.195-.6-1.195-1.334Z"/><path d="M12.421 8.667h15.825a2.412 2.412 0 0 1 2.42 2.403V32l-2.538-2.216-1.43-1.307-1.511-1.388.626 2.158H12.421A2.412 2.412 0 0 1 10 26.844V11.07a2.412 2.412 0 0 1 2.421-2.403Zm10.487 14.292c.354.443.78.945.78.945 2.61-.082 3.613-1.774 3.613-1.774 0-3.756-1.7-6.801-1.7-6.801-1.701-1.26-3.32-1.225-3.32-1.225l-.164.186c2.007.607 2.94 1.482 2.94 1.482a9.71 9.71 0 0 0-3.554-1.12c-.85-.093-1.666-.07-2.386.023-.062 0-.115.01-.174.02a4.795 4.795 0 0 1-.027.004c-.413.035-1.417.186-2.68.735-.438.198-.697.338-.697.338s.98-.922 3.106-1.528l-.119-.14s-1.617-.035-3.318 1.225c0 0-1.7 3.045-1.7 6.801 0 0 .991 1.692 3.601 1.774 0 0 .437-.525.792-.969-1.5-.443-2.067-1.376-2.067-1.376s.118.081.33.198a.163.163 0 0 0 .048.035c.018.012.035.02.053.03a6.95 6.95 0 0 0 .915.426c.484.186 1.063.372 1.736.5a8.373 8.373 0 0 0 3.059.012 7.842 7.842 0 0 0 1.712-.501 6.79 6.79 0 0 0 1.358-.689s-.59.957-2.137 1.389Z"/></g></svg>