<svg width="274" height="81" viewBox="0 0 274 81" fill="none" xmlns="http://www.w3.org/2000/svg">
<path d="M137.829 31.6363C137.829 29.9452 137.314 28.8055 136.285 28.2173C135.255 27.5556 133.527 27.2248 131.101 27.2248H114.337V36.0477H131.101C133.527 36.0477 135.255 35.7536 136.285 35.1654C137.314 34.5037 137.829 33.3273 137.829 31.6363ZM114.337 58.7669H131.763C134.189 58.7669 135.99 58.4361 137.167 57.7744C138.343 57.0391 138.931 55.7524 138.931 53.9143C138.931 52.0762 138.343 50.7895 137.167 50.0542C135.99 49.319 134.189 48.9514 131.763 48.9514H114.337V58.7669ZM102.206 71.6706C101.618 71.6706 101.103 71.45 100.662 71.0088C100.221 70.5677 100 70.053 100 69.4648V16.5269C100 15.9387 100.221 15.424 100.662 14.9829C101.103 14.5417 101.618 14.3211 102.206 14.3211H133.196C135.99 14.3211 138.564 14.7255 140.917 15.5343C143.269 16.2695 145.255 17.3357 146.872 18.7326C148.563 20.0561 149.85 21.7104 150.732 23.6956C151.688 25.6072 152.166 27.7394 152.166 30.0922C152.166 33.2538 151.651 35.7169 150.622 37.4815C149.593 39.2461 148.269 40.6798 146.652 41.7827C149.151 43.3267 150.879 45.2016 151.835 47.4073C152.791 49.6131 153.269 52.1497 153.269 55.0172C153.269 57.7376 152.791 60.1639 151.835 62.2961C150.953 64.3548 149.703 66.0827 148.085 67.4796C146.468 68.8766 144.556 69.9427 142.35 70.678C140.145 71.3397 137.718 71.6706 135.071 71.6706H102.206Z" fill="#4A148C"/>
<path d="M156.973 57.3332C156.899 56.5244 157.157 55.8259 157.745 55.2377C158.407 54.6495 159.142 54.3554 159.951 54.3554H168.332C169.141 54.3554 169.803 54.7231 170.318 55.4583C170.832 56.1936 171.384 56.8185 171.972 57.3332C172.928 58.142 174.104 58.7302 175.501 59.0978C176.898 59.3919 179.104 59.539 182.118 59.539C186.236 59.539 189.067 59.061 190.611 58.1052C192.228 57.1494 193.037 55.973 193.037 54.576C193.037 53.3261 192.302 52.1865 190.831 51.1571C189.361 50.0542 186.824 49.5028 183.221 49.5028H177.155C176.347 49.5028 175.648 49.2087 175.06 48.6205C174.472 48.0323 174.178 47.3338 174.178 46.525V39.2461C174.178 38.4373 174.472 37.7388 175.06 37.1506C175.648 36.5624 176.347 36.2683 177.155 36.2683H182.118C185.942 36.2683 188.515 35.7904 189.839 34.8346C191.235 33.8052 191.934 32.6288 191.934 31.3054C191.934 29.9819 191.125 28.8423 189.508 27.8865C187.89 26.9307 185.427 26.4527 182.118 26.4527C179.619 26.4527 177.67 26.7101 176.273 27.2248C174.95 27.7394 173.847 28.4012 172.965 29.2099C172.376 29.7981 171.825 30.4599 171.31 31.1951C170.796 31.8568 170.134 32.1877 169.325 32.1877H160.943C160.134 32.1877 159.399 31.8936 158.737 31.3054C158.149 30.7172 157.892 30.0187 157.965 29.2099C158.039 27.6659 158.554 25.9748 159.509 24.1367C160.539 22.2251 162.046 20.4605 164.031 18.8429C166.016 17.2254 168.48 15.9019 171.421 14.8726C174.435 13.7697 178.001 13.2183 182.118 13.2183C186.309 13.2183 189.912 13.6962 192.927 14.652C195.941 15.6078 198.441 16.9313 200.426 18.6223C202.411 20.2399 203.882 22.1515 204.838 24.3573C205.793 26.563 206.271 28.9158 206.271 31.4157C206.271 33.5479 205.94 35.5698 205.279 37.4815C204.617 39.3196 203.588 41.0107 202.191 42.5547C203.882 44.1722 205.168 46.0104 206.051 48.0691C206.933 50.1278 207.374 52.2967 207.374 54.576C207.374 57.0759 206.86 59.4287 205.83 61.6344C204.874 63.8402 203.33 65.7886 201.198 67.4796C199.139 69.0972 196.529 70.3839 193.368 71.3397C190.206 72.2955 186.456 72.7734 182.118 72.7734C177.78 72.7734 174.031 72.2588 170.869 71.2294C167.781 70.2001 165.208 68.9134 163.149 67.3694C161.09 65.8253 159.546 64.171 158.517 62.4064C157.561 60.5683 157.046 58.8772 156.973 57.3332Z" fill="#4A148C"/>
<path d="M228.89 51.3777V68.6928C228.89 69.5016 228.596 70.2001 228.007 70.7883C227.419 71.3765 226.721 71.6706 225.912 71.6706H217.53C216.721 71.6706 216.023 71.3765 215.435 70.7883C214.846 70.2001 214.552 69.5016 214.552 68.6928V17.2989C214.552 16.4901 214.846 15.7916 215.435 15.2034C216.023 14.6152 216.721 14.3211 217.53 14.3211H225.912C226.721 14.3211 227.419 14.6152 228.007 15.2034C228.596 15.7916 228.89 16.4901 228.89 17.2989V34.7243L249.183 16.196C249.624 15.8284 250.175 15.424 250.837 14.9829C251.572 14.5417 252.454 14.3211 253.484 14.3211H263.961C264.696 14.3211 265.321 14.5785 265.836 15.0931C266.351 15.6078 266.608 16.2328 266.608 16.968C266.608 17.3357 266.534 17.7033 266.387 18.0709C266.314 18.365 265.983 18.7326 265.395 19.1738L239.698 42.4444L267.821 66.9282C268.262 67.3694 268.556 67.737 268.703 68.0311C268.85 68.3252 268.924 68.656 268.924 69.0237C268.924 69.7589 268.667 70.3839 268.152 70.8985C267.637 71.4132 267.012 71.6706 266.277 71.6706H254.587C253.484 71.6706 252.528 71.45 251.719 71.0088C250.984 70.5677 250.433 70.1633 250.065 69.7957L228.89 51.3777Z" fill="#4A148C"/>
<path fill-rule="evenodd" clip-rule="evenodd" d="M24.6714 6.83328C28.1672 6.83328 31.002 3.99978 31.002 0.5H47.002C47.002 12.8323 37.0078 22.8333 24.6714 22.8333H8.00195C3.58367 22.8333 0.00195312 19.2516 0.00195312 14.8333C0.00195312 10.415 3.58367 6.83328 8.00195 6.83328H24.6714Z" fill="#4A148C"/>
<path fill-rule="evenodd" clip-rule="evenodd" d="M58.335 69.167C52.076 69.167 47.002 74.241 47.002 80.5002H31.002C31.002 65.4046 43.2393 53.167 58.335 53.167H70.002C74.4202 53.167 78.002 56.7487 78.002 61.167C78.002 65.5853 74.4202 69.167 70.002 69.167H58.335Z" fill="#4A148C"/>
<path fill-rule="evenodd" clip-rule="evenodd" d="M4.77008 43.5149L51.538 22.8606L58.0018 37.4968L11.2339 58.1511C7.19226 59.936 2.46885 58.1066 0.683902 54.0649C-1.10104 50.0232 0.728404 45.2998 4.77008 43.5149Z" fill="#4A148C"/>
<path fill-rule="evenodd" clip-rule="evenodd" d="M74.3128 14.479C76.6114 15.9493 78.0021 18.4897 78.0021 21.2183L78.002 39.9927C78.002 42.6463 76.6862 45.1273 74.4893 46.6157C72.2924 48.1042 69.5004 48.4064 67.0359 47.4225L45.2326 38.718C42.2642 37.5329 40.286 34.6947 40.2016 31.4995C40.1172 28.3044 41.9427 25.3656 44.8444 24.0254L66.6477 13.9555C69.1248 12.8114 72.0142 13.0088 74.3128 14.479Z" fill="url(#paint0_linear_41_47)"/>
<path fill-rule="evenodd" clip-rule="evenodd" d="M0.603439 11.957C2.28404 7.87084 6.95892 5.92074 11.0451 7.60134L73.045 33.1012C77.1312 34.7818 79.0813 39.4567 77.4007 43.5429C75.7201 47.6291 71.0452 49.5792 66.959 47.8986L4.95911 22.3987C0.872942 20.7181 -1.07716 16.0432 0.603439 11.957Z" fill="#AB47BC"/>
<path fill-rule="evenodd" clip-rule="evenodd" d="M0.111074 49.5178C0.837434 45.1597 4.95925 42.2155 9.31742 42.9419L71.3174 53.2752C75.6756 54.0016 78.6197 58.1234 77.8934 62.4816C77.167 66.8397 73.0452 69.7839 68.687 69.0575L6.68703 58.7242C2.32887 57.9978 -0.615287 53.876 0.111074 49.5178Z" fill="#AB47BC"/>
<defs>
<linearGradient id="paint0_linear_41_47" x1="59.1004" y1="39.9927" x2="72.0935" y2="13.4526" gradientUnits="userSpaceOnUse">
<stop stop-color="#4A148C"/>
<stop offset="1" stop-color="#AB47BC"/>
</linearGradient>
</defs>
</svg>
