<svg width="40" height="40" fill="none" xmlns="http://www.w3.org/2000/svg"><path d="M0 20C0 8.954 8.954 0 20 0s20 8.954 20 20-8.954 20-20 20S0 31.046 0 20Z" fill="#F68634"/><path d="m22.163 24.533 2.99 2.886c.612.59.612 1.547 0 2.138-.612.59-1.604.59-2.215 0L20 26.722l-2.937 2.835a1.594 1.594 0 0 1-1.108.442c-.4 0-.801-.147-1.107-.442a1.476 1.476 0 0 1-.001-2.138l2.99-2.886a10.237 10.237 0 0 1-3.105-1.24 1.482 1.482 0 0 1-.49-2.086c.459-.707 1.426-.92 2.159-.475a6.996 6.996 0 0 0 7.198 0c.733-.446 1.7-.232 2.16.475.461.706.24 1.64-.491 2.085a10.219 10.219 0 0 1-3.105 1.241Z" fill="#fff"/><path fill-rule="evenodd" clip-rule="evenodd" d="M14.64 15.161c0 2.846 2.398 5.16 5.346 5.16 2.95 0 5.347-2.314 5.347-5.16S22.936 10 19.986 10c-2.948 0-5.346 2.315-5.346 5.161Zm7.56 0c0-1.178-.993-2.136-2.214-2.136-1.22 0-2.213.958-2.213 2.136 0 1.178.994 2.137 2.213 2.137 1.221 0 2.214-.96 2.214-2.137Z" fill="#fff"/></svg>