<svg width="127" height="101" fill="none" xmlns="http://www.w3.org/2000/svg"><path d="M.39.726v28.713c0 8.35 1.606 16.958 4.818 25.822a114.921 114.921 0 0 0 12.718 25.052c5.268 7.965 11.049 14.71 17.344 20.234l25.822-15.03c-4.625-7.709-8.607-15.995-11.947-24.86-3.34-8.864-5.01-19.27-5.01-31.218V.726H.39Zm65.52 0v28.713c0 8.35 1.606 16.958 4.818 25.822a114.923 114.923 0 0 0 12.718 25.052c5.267 7.965 11.049 14.71 17.344 20.234l25.822-15.03c-4.625-7.709-8.607-15.995-11.948-24.86-3.34-8.864-5.01-19.27-5.01-31.218V.726H65.91Z" fill="#000" fill-opacity=".03"/></svg>