<svg width="40" height="40" fill="none" xmlns="http://www.w3.org/2000/svg"><path d="M20 40c11.046 0 20-8.954 20-20S31.046 0 20 0 0 8.954 0 20s8.954 20 20 20Z" fill="url(#a)"/><path d="M16.333 29.166c-.648 0-.537-.244-.761-.861l-1.905-6.271 14.666-8.701" fill="#C8DAEA"/><path d="M16.333 29.166c.5 0 .721-.229 1-.5L20 26.073l-3.326-2.006" fill="#A9C9DD"/><path d="m16.673 24.069 8.06 5.954c.92.508 1.584.245 1.813-.854l3.28-15.46c.337-1.347-.513-1.957-1.393-1.558L9.17 19.579c-1.315.528-1.308 1.261-.24 1.588l4.944 1.543 11.445-7.22c.54-.328 1.036-.152.63.21" fill="url(#b)"/><defs><linearGradient id="a" x1="15.002" y1="1.668" x2="5.002" y2="25" gradientUnits="userSpaceOnUse"><stop stop-color="#37AEE2"/><stop offset="1" stop-color="#1E96C8"/></linearGradient><linearGradient id="b" x1="17.496" y1="21.229" x2="19.633" y2="28.141" gradientUnits="userSpaceOnUse"><stop stop-color="#EFF7FC"/><stop offset="1" stop-color="#fff"/></linearGradient></defs></svg>